<svg xmlns="http://www.w3.org/2000/svg" enable-background="new 0 0 2792.727 2792.727" viewBox="0 0 2792.727 2792.727" id="thinking-young-man"><path fill="#c5bbbb" d="M1300.955 1214.979c1.325.098 1.743 1.095 2.117 2.136.724 1.165.611 2.243-.338 3.234-1.845-.347-3.703-.671-4.64-2.623.953-.917 1.907-1.832 2.861-2.747z"></path><path fill="#6f5b5b" d="M997.692 1891.612c1.361 1.165 2.406 2.688.788 4.084-1.64 1.417-2.949.328-3.639-1.485 1.686-.059 2.212-1.392 2.851-2.599z"></path><path d="M1982.097 1421.8c-.173-22.539.014-45.09-.708-67.611-1.049-32.738-13.614-60.575-37.529-83.088-8.487-7.989-17.863-14.86-27.746-21.059-41.659-26.128-86.938-43.311-134.719-54.076-25.553-5.757-51.471-9.392-77.715-9.878-24.005-.444-47.676-4.59-71.796-5.678-.372-1.692-.871-3.068-.952-4.468-.697-12.014-.269-24.006 1.654-35.879 1.102-6.799 2.644-13.554 4.438-20.207 1.679-6.226 4.738-10.781 12.263-11.97 8.411-1.33 15.232-6.555 21.302-12.502 8.958-8.777 15.431-19.24 20.541-30.584 11.453-25.426 15.524-52.102 12.812-79.774-1.032-10.529-3.716-20.737-8.731-30.173-4.179-7.861-9.715-14.472-17.882-18.488-1.578-.776-3.545-1.064-3.395-3.483 18.545-19.635 45.831-53.282 59.666-73.603 6.551-9.622 12.709-19.467 17.056-30.33 7.406-18.509 11.053-37.556 8.391-57.543-1.759-13.202-7.042-25.117-13.421-36.587-12.374-22.248-26.374-43.479-41.008-64.284-7.986-11.354-17.4-21.449-28.379-30.002-13.931-10.854-29.742-16.259-47.417-16.754-13.037-.365-25.226 2.579-36.84 8.177-15.069 7.263-29.747 15.259-42.908 25.676-6.395 5.061-13.548 6.541-21.391 6.419-7.203-.112-13.264-3.254-19.311-6.653-3.965-2.228-6.855-5.211-8.385-9.573-.958-2.732-2.083-5.449-3.493-7.972-11.617-20.779-28.349-33.752-53.051-34.272-7.286-.154-14.505.616-21.635 2.183-21.573 4.739-41.134 14.029-59.394 26.252-14.823 9.922-28.685 21.091-42.27 32.621-41.627 35.33-80.584 73.462-118.333 112.856-18.877 19.699-36.587 40.427-53.64 61.714-13.188 16.463-25.617 33.475-36.363 51.659-6.283 10.632-12.18 21.463-17.083 32.829-5.234 12.134-8.45 24.778-9.305 37.904-.894 13.725 1.234 26.98 10.068 38.113 9.314 11.739 21.157 17.347 36.448 13.476a251.211 251.211 0 0 1 18.097-3.892c15.064-2.651 27.995 1.589 38.726 12.5 6.64 6.751 10.076 15.036 11.208 24.279.579 4.726 1.327 9.41 3.197 13.75 3.672 8.522 10.417 15.013 22.13 14.371 3.601-.198 7.226-.792 10.738-1.633 9.934-2.38 19.205-6.535 28.401-10.901 3.555-1.688 6.811-4.188 10.91-4.577 1.273 1.636.745 3.438.622 5.146-1.356 18.841-2.453 37.691-5.108 56.432-1.582 11.162-1.771 22.49 1.318 33.564 4.712 16.893 11.852 32.732 20.885 47.738 2.616 4.347 5.26 8.677 7.892 13.014.3.969.396 2.011 1.031 2.876.021.005.203.969.203.969s-.901-.386-.876-.377c-1.073-.164-2.208-.165-3.219-.722-12.998-5.706-25.348-12.51-36.663-21.159-8.312-6.353-12.802-14.606-13.531-25.034-.329-4.708-1.094-9.385-1.519-14.089-.96-10.629-11.045-18.355-22.968-15.573-8.474 1.978-15.514 6.147-21.103 12.675-5.557 6.491-12.22 11.291-20.088 14.554-7.605 3.154-13.492 8.448-18.188 15.131-1.253 1.784-2.465 3.598-3.684 5.406-4.776 7.076-10.658 12.708-18.821 15.916-8.281 3.255-14.892 8.953-20.636 15.677-1.889 2.211-3.813 4.393-5.685 6.619-6.201 7.373-13.522 13.12-22.83 16.124-2.406.776-4.708 1.904-7.003 2.988-10.641 5.025-15.625 13.672-15.889 25.217-.168 7.327 1.095 14.502 3.077 21.509 2.916 10.308 9.152 18.045 18.799 22.876 2.59 1.297 5.287 2.379 7.901 3.631 1.968.943 3.882 1.999 6.343 3.276-31.575 11.145-56.595 29.683-76.707 55.114-14.997 18.961-27.01 39.56-35.237 62.322-4.821 13.337-8.714 26.95-11.563 40.835-6.136 29.909-11.096 59.997-13.977 90.423-2.75 29.05-2.383 58.108-.42 87.143 1.373 20.298 3.489 40.549 5.515 60.798 1.664 16.629 3.195 33.294 5.642 49.816 6.014 40.604 12.523 81.134 18.833 121.693.56 2.524-.37 3.413-2.852 2.599-13.743-12.078-29.046-21.629-45.691-29.263-10.349-4.746-20.982-8.245-32.203-9.584-19.41-2.315-37.899.647-53.704 12.879-23.873 18.477-40.936 42.1-50.573 70.793-4.491 13.373-3.609 26.501 3.835 38.846 2.879 4.774 6.521 8.829 11.64 11.142 8.603 3.888 17.335 7.806 26.75 8.923 8.33.989 14.941 4.311 21.311 9.694 12.934 10.931 27.197 19.477 44.954 19.695 4.962.061 9.155 2.073 12.923 5.113 3.96 3.194 7.711 6.673 11.843 9.622 10.602 7.566 22.255 12.187 35.551 11.537 17.963-.878 32.766-8.511 45.172-21.243 1.393-1.43 2.087-3.915 5.103-3.403 1.611 4.698 3.226 9.51 4.908 14.297 6.982 19.87 13.912 39.802 23.713 58.484 16.487 31.423 40.269 55.823 71.946 72.172 16.395 8.462 34.069 13.28 52.356 13.249 26.491-.046 52.028-6.405 75.406-18.822 32.927-17.49 58.943-42.213 74.2-77.014 1.02-2.326 2.127-4.614 3.206-6.913 1.376-2.932 2.107-6.575 4.316-8.603 2.688-2.467 6.04.921 9.209 1.05 1.812.073 3.612.418 5.423.552 18.842 1.391 37.665 3.253 56.532 4.05 54.121 2.284 108.283 3.333 162.446 3.765 25.068.2 50.159.457 75.22-1.29 25.017-1.744 50.06-3.155 75.105-4.445 24.77-1.276 49.115-5.235 73.094-11.349 21.988-5.606 42.626-14.329 60.796-28.281 5.802-4.455 11.138-9.37 15.539-15.209 7.018-9.312 12.738-19.471 18.082-29.771 5.171-9.969 9.188-20.53 14.153-30.613 15.638-31.768 25.921-65.395 34.873-99.486 1.749-6.658 3.046-13.463 4.108-20.269 2.856-18.3 5.579-36.623 8.152-54.964 2.473-17.629 4.623-35.303 7.037-52.94 4.04-29.511 7.979-59.038 12.34-88.501 2.928-19.776 5.975-39.543 7.088-59.501 1.053-18.869 1.745-37.782 1.782-56.677.08-36.713-.399-73.424-.681-110.134zM1464.6 679.213c.176-.563.888-1.076 1.479-1.365 1.295-.633 2.113.363 2.336 1.307 1.058 4.492 1.943 9.024 2.89 13.542 3.694 5.971 8.408 10.876 14.738 14.089 13.072 2.259 25.777.957 38.138-3.865.976-.381 2.112-.352 3.174-.513 10.237-5.052 34.991-17.392 34.991-17.392.198-.149.404-.275.616-.386l1.505-.944c.66-.249 11.032-5.049 11.032-5.049s1.142-.356 1.102-.356c.732-1.188 23.01-7.217 26.05-6.367l.005-.001h-.004c7.023-1.459 12.528-.753 19.829.003 2.622-.923 5.144-.244 7.663.481 2.048-.305 3.926-.034 5.416 1.575 8.687.603 16.677 3.161 23.703 8.433v.002l.001-.001c13.143 6.742 23.708 16.396 32.14 28.46l.014.068c.177 1.217 1.15 1.772 2.012 2.419 10.896 13.076 16.276 28.3 17.56 45.117l.001.003c2.123 5.205 2.215 10.631 1.729 16.119-.66.742-.348 1.64.021 2.197.868 9.436 1.115 18.871-.076 28.302h.001a6378.19 6378.19 0 0 0-.116 4.372c.435 2.669.143 5.204-1.386 7.51l-.706 5.622c.475 2.605-.067 4.983-1.594 7.142v.001c-3.428 21.508-9.996 41.686-24.735 58.403a8.958 8.958 0 0 1-1.62 1.86l-.259.297c-4.939 7.653-12.039 12.277-20.712 14.583-5.557 1.478-10.826.617-15.406-2.918-2.049-1.582-3.458-3.8-2.486-6.636.201-.585.894-1.048 1.442-1.457.734-.548 1.555-.446 1.815.332 1.143 3.404 3.583 5.297 6.931 6.154 3.716.952 7.153-.296 10.574-1.491 3.472-1.212 6.387-3.345 9.112-5.745 2.153-1.897 4.241-3.867 6.359-5.805.359-1.698 1.529-2.761 2.88-3.683a21.068 21.068 0 0 1 1.687-2.126l.09-.131c.947-.676 1.674-1.51 1.923-2.686 10.922-17.98 16.082-37.953 20.158-58.299-.424-3.047.095-5.923 1.379-8.662.083-.208.177-.414.292-.616l.529-5.966v-30.571c-.715-3.199-5.08-30.031-6.613-35.226-2.795-9.475-8.214-17.598-13.426-25.823-3.759-3.896-7.474-7.834-11.286-11.676-6.659-6.71-14.484-11.96-22.137-17.418l-20.2-6.281a4.532 4.532 0 0 1-1.94-.531l-7.87-1.717-25.623.063c-2.637.253-9.922 1.421-10.836 1.973.882-.366-14.276 6.28-20.494 8.654-1.168.446-2.291.99-3.366 1.629-10.65 6.326-21.281 12.69-33.194 16.499-14.43 6.908-29.394 10.319-45.356 6.697-1.704-.387-3.241-1.506-4.855-2.285-5.217-1.698-8.929-5.064-11.167-10.066v-.001c-4.276-4.743-5.296-10.705-6.166-16.698-.154-1.025.001-2.163.312-3.155zm54.165 218.676c-.547-5.678-3.532-8.491-9.164-8.623-4.699-.109-9.323.73-13.693 2.671-3.938 1.749-7.919 3.4-11.882 5.094-2.572 1.951-5.1 3.961-7.736 5.816-.853.6-2.059.837-2.894-.174-.771-.933-.637-2.083.099-2.925 2.169-2.479 4.785-4.35 7.983-5.314 7.005-5.528 15.128-8.384 23.822-9.676 2.454-.365 5.062-.207 7.534.157 5.667.835 9.14 4.424 10.261 9.853.724 3.505.625 7.198.717 10.81.083 3.259-.356 6.549-.067 9.781.457 5.113 2.241 9.125 9.083 7.635 1.054-.229 2.162-.209 3.245-.304l13.142-6.156 38.423-22.244c1.337-.1 2.236-.88 2.968-1.917l.179-.099c5.531-4.773 11.981-8.059 18.42-11.352 1.278-.653 2.805-1.164 3.611.601.769 1.685-.557 2.744-1.751 3.45-5.293 3.132-10.655 6.146-15.992 9.202-12.178 8.387-24.598 16.365-38.108 22.495-1.421.015-2.358.831-3.144 1.897l-.307.127a32.922 32.922 0 0 1-12.986 6.38c-2.708 2.062-5.903 2.637-9.164 2.896-6.591.525-10.235-1.954-11.719-8.522-.705-3.118-.609-6.434-.71-9.666-.126-3.962.209-7.959-.17-11.893zm-260.078 109.196c-4.284.833-11.627.233-18.227-.646a21.962 21.962 0 0 1-18.084-15.282c-1.255-4.059-2.403-7.911-2.767-9.556-1.058-4.774-2.13-9.549-3.407-14.27-.404-1.495-1.23-3.753-2.491-6.002-2.407-4.292-6.768-7.103-11.645-7.757-6.836-.917-13.482-.018-20.574 1.619-2.736.632-17.714 2.749-19.56 2.958-3.063 1.393-15.48.538-17.201.095-4.81-1.022-7.055-4.451-8.228-8.841-.945-3.536-.86-7.111-.292-10.701 1.071-6.775 8.895-24.383 10.285-26.87 12.226-21.875 70.045-93.969 77.466-100.516 2.557-3.02 5.008-6.136 7.688-9.043 22.112-23.995 45.587-46.633 69.223-69.101 7.051-6.703 61.47-58.862 64.692-59.687.56-.143 1.436.335 1.792.804.325.428.731 1.302.435 1.567-1.82 1.624-4.078 3.353-5.992 4.87-10.827 10.347-41.906 40.457-44.452 42.961-22.722 22.343-45.538 44.592-68.206 66.99-7.706 7.615-15.069 15.575-22.589 23.378-7.559 8.705-27.824 31.855-28.354 32.688l-.01.027c-.615.464-10.477 12.24-10.792 13.327-2.283 3.21-4.449 6.512-6.869 9.615-13.092 16.781-24.758 34.49-34.869 53.221-1.225 3.674-2.71 7.285-3.619 11.036-1.596 6.583-2.879 13.256 1.707 19.345.968 1.709 2.868 1.797 4.359 2.084l9.833-.106c.897-.188 2.187-.014 3.075-.241 1.842-.067 31.415-6.44 38.495-5.723 7.031.713 11.575 3.983 17.444 9.166.875.773 1.52 1.821 1.95 2.907a163.597 163.597 0 0 1 3.383 9.291c1.93 5.893 4.278 21.679 5.599 21.911 6.298 9.907 15.818 11.872 26.491 10.412 8.608-1.178 16.961-3.574 24.805-7.335 9.404-4.509 18.645-9.358 27.956-14.06.629-.494 12.916-8.521 12.916-8.521v-.002c-.001.001 1.479-1.16 2.153-1.597 1.244-1.26 74.085-62.026 74.085-62.026-.001-.001 3.114-3.743 4.453-2.41 1.167 1.161.809 2.533-.126 3.699-.407.508-37.121 34.192-37.121 34.192-.724.429-1.245.96-1.726 1.472-1.016 1.405-13.287 11.561-17.451 13.853a12.258 12.258 0 0 0-2.143 1.73l-.449.3c-.937 1.236-8.873 7.546-12.172 8.962-.764.359-2.828 2.017-2.828 2.017-.675.589-14.485 9.835-15.245 10.298-.343.644-35.199 20.074-52.796 23.498zm27.438 154.231c-4.418-12.213-6.037-24.648-4.27-37.495 2.428-17.649 4.209-35.336 4.127-53.184-.022-4.711.913-9.445.679-14.132-.182-3.652 1.659-5.214 4.333-6.672 8.917-4.859 17.979-9.483 26.664-14.73 8.067-4.874 16.002-10.066 23.481-15.79 7.796-5.967 16.353-7.629 25.653-6.313 11.998 1.698 23.32 5.378 33.133 12.833.859.652 1.655 1.429 2.599 1.919 2.089 1.084 4.209 1.083 6.068-.521 1.915-1.652 1.817-3.868 1.242-6.019-.808-3.024-3.251-4.799-5.674-6.354-7.992-5.129-16.532-9.069-25.85-11.154-3.891-.87-7.796-1.675-13.492-2.894 6.79-5.149 11.897-9.153 17.14-12.973 23.488-17.115 47.826-32.985 72.074-48.983 3.326-2.194 6.817-4.175 10.379-5.96 2.576-1.291 5.318-2.581 8.121-3.027 9.645-1.536 10.886-.063 8.433 8.591-.791 2.791-1.976 5.478-2.653 8.292-.502 2.085-.795 4.323-.622 6.448.539 6.629 5.054 10.748 11.656 10.221 3.936-.314 7.878-1.343 11.67-2.522 7.614-2.366 15.243-4.764 22.659-7.674 15.53-6.094 30.921-12.54 46.38-18.818 10.112-4.107 19.589-9.453 29.101-14.746 2.841-1.581 5.742-3.212 8.816-4.182 4.931-1.555 8.42.754 9.744 5.77 1.335 5.055.674 10.089.092 15.152-.835 7.26-.974 14.473 1.205 21.602 1.215 3.975 3.15 7.313 6.665 9.616 3.046 1.997 6.256 1.688 8.772-1.092 2.19-2.419 4.074-5.113 6.208-7.586 4.305-4.99 9.124-9.357 15.265-12.035 8.681-3.786 16.226-2.411 22.931 4.263 3.656 3.64 6.181 8.022 8.211 12.737 3.336 7.75 5.255 15.887 5.96 24.224 2.186 25.871-2.151 50.672-13.117 74.228-4.314 9.268-9.703 17.903-17.169 25.018-6.459 6.156-13.605 10.975-23.163 10.164-3.892-.33-5.856 1.886-7.42 5.116-4.277 8.833-8.056 17.828-10.885 27.255-15.558 51.852-44.211 95.212-85.485 130.109-20.464 17.302-43.483 30.196-69.629 36.966-25.266 6.542-50.236 6.209-74.968-2.898-3.84-1.414-6.008-3.448-7.52-6.984-1.566-3.662-3.387-7.239-5.369-10.697-7.534-13.151-17.571-23.981-30.383-32.159-2.753-1.757-5.622-3.335-8.359-5.116-7.027-4.575-13.604-9.714-18.717-16.438-14.356-18.877-26.6-38.937-34.716-61.376zm314.057 155.984c-6.721 11.232-14.428 21.777-22.879 31.793-12.665 15.009-25.893 29.465-40.582 42.538-5.72 5.091-11.76 9.747-18.764 12.926-16.042 7.281-31.475 6.802-46.52-3.165-13.175-8.729-24.438-19.359-34.183-31.709a529.961 529.961 0 0 0-6.833-8.485c-8.649-10.511-18.519-19.453-31.521-24.323-3.353-1.256-5.008-3.377-5.369-7.203-.646-6.852-2.035-13.631-3.03-20.453-.273-1.875 1.007-2.666 2.61-2.326 6.73 1.425 13.375 3.325 20.15 4.453 23.882 3.977 47.006.331 69.577-7.681 22.13-7.855 41.916-19.845 59.988-34.723 29.307-24.126 51.891-53.648 69.608-87.052 1.53-2.884 3.052-5.772 4.613-8.64.126-.231.53-.312 2.466-1.371 1.133 24.818 2.437 48.73 3.261 72.658.926 26.807-9.182 50.353-22.592 72.763zm-501.92-9.841c-8.999-4.259-14.077-11.183-15.797-20.742-.771-4.285-1.44-8.628-1.633-12.968-.358-8.036 2.693-14.449 10.717-17.055 16.216-5.266 28.423-15.618 38.65-28.865 4.277-5.54 9.892-9.708 16.435-12.258 9.913-3.863 17.359-10.631 22.834-19.45 5.577-8.984 12.86-15.541 22.747-19.406 7.286-2.848 12.713-8.292 17.858-13.999 4.215-4.676 9.017-8.363 15.431-9.599 5.865-1.13 8.916.824 9.782 6.919.716 5.036 1.139 10.113 1.705 15.17 1.272 11.355 6.255 20.715 14.97 28.134 6.391 5.441 13.235 10.235 20.667 14.093 15.459 8.026 30.927 16.043 46.574 23.691 7.525 3.678 14.807 7.715 21.855 12.188 20.453 12.979 32.525 31.922 37.694 55.179 4.518 20.332 5.149 40.987 3.763 61.815-1.257 18.888-4.38 37.53-6.179 56.335-.57 5.959-.741 5.926-7.131 7.699-14.151 3.927-28.732 4.013-42.779 4.943-15.352-.599-30.182-1.603-44.611-5.874-3.436-1.017-5.468-2.658-6.667-6.251-3.79-11.356-8.041-22.559-12.081-33.832-6.782-18.929-18.449-34.583-33.101-47.98-15.147-13.849-33.568-21.293-53.476-25.309-17.848-3.6-36.033-4.48-54.073-6.53-8.323-.944-16.437-2.396-24.154-6.048zm-73.914 708.555c-11.044 18.011-27.22 26.599-48.171 26.251-5.511-.092-10.63-2.041-15.796-5.382 5.826-14.268 13.751-26.328 28.611-32.451 1.327-.547 2.642-1.253 3.765-2.136 1.518-1.195 2.24-2.964 1.735-4.841-.486-1.81-1.807-3.09-3.676-3.666-3.388-1.043-6.486.033-9.439 1.493-6.611 3.27-12.179 7.891-16.87 13.563a79.588 79.588 0 0 0-10.529 16.498c-.935 1.961-1.491 4.12-3.601 5.538-9.237-6.695-17.242-16.055-30.083-14.715-1.28-3.406.456-5.555 1.463-7.645 6.019-12.49 12.653-24.54 24.635-32.582 2.594-1.74 3.008-4.554 1.606-6.644-1.845-2.751-4.775-3.894-7.521-2.831-3.127 1.211-5.513 3.462-7.829 5.791-8.849 8.895-15.083 19.497-20.094 30.883-1.44 3.271-2.713 6.617-4.327 10.579-9.946-3.434-17.286-8.753-24.488-14.286-1.724-1.324-3.192-2.976-4.874-4.359-6.808-5.6-6.756-5.558-3.77-13.188 3.947-10.084 10.618-18.112 18.656-25.136 1.914-1.672 4.036-3.126 5.815-4.925 1.317-1.333 1.77-3.197.91-5.026-.806-1.712-2.155-2.853-4.105-3.218-3.176-.594-5.639.78-7.916 2.738-8.626 7.42-16.14 15.722-20.82 26.268-.883 1.991-1.799 3.973-2.568 6.009-3.659 9.683-3.667 9.778-13.795 7.011-3.837-1.048-7.555-2.551-11.29-3.946-13.31-4.973-19.899-15.468-18.368-29.581.468-4.314 1.36-8.558 2.877-12.718 8.683-23.819 23.229-43.466 42.411-59.768 12.895-10.959 28.215-14.661 44.759-13.392 10.921.837 21.345 3.846 31.431 8.319 20.142 8.931 37.7 21.712 54.729 35.42 3.086 2.485 4.664 5.355 5.555 8.99a29973.513 29973.513 0 0 0 17.99 72.972c1.309 5.286 2.741 10.541 4.154 15.801.795 2.954.492 5.599-1.172 8.312zm947.374-501.863c-.472 23.629-.708 47.273-1.823 70.874-.943 19.963-3.925 39.753-6.884 59.533-4.407 29.461-8.339 58.995-12.387 88.509-2.37 17.28-4.464 34.597-6.88 51.87a3715.463 3715.463 0 0 1-8.262 56.06c-1.17 7.527-2.468 15.085-4.456 22.426-8.924 32.965-18.774 65.611-34.002 96.375-6.44 13.01-12.295 26.31-18.692 39.342-6.5 13.24-15.454 24.455-27.534 33.231-17.037 12.376-36.083 20.041-56.294 25.184-20.82 5.298-41.958 8.857-63.379 10.301-28.653 1.93-57.321 3.818-86.013 4.94-37.788 1.478-75.608 1.381-113.419.484-31.988-.76-63.974-1.558-95.964-2.248-25.456-.549-50.815-2.629-76.183-4.597-4.336-.336-8.682-.67-12.703-2.733-1.4-1.748-.266-3.456.25-5.032 8.842-27.018 14.169-54.839 18.596-82.83 2.894-18.296 5.38-36.675 7.394-55.088 2.292-20.949 4.373-41.947 5.619-62.978 2.194-37.016 3.645-74.075 5.482-111.112 1.496-30.138 3.091-60.271 4.665-90.405.532-10.184.554-20.342-.788-30.485-.884-6.678-3.513-12.555-7.606-17.812-1.475-1.894-4.075-2.324-5.83-1.212-2.105 1.333-2.682 3.345-2.34 5.641.156 1.05.5 2.162 1.068 3.047 4.789 7.469 5.013 15.873 4.634 24.237-1.462 32.32-3.181 64.629-4.73 96.945-.818 17.065-1.157 34.142-2.309 51.204-2.057 30.464-2.944 61.011-5.24 91.454-3.746 49.682-10.2 99.034-21.512 147.621-6.029 25.896-14.459 50.948-27.816 74.185-7.152 12.443-16.104 23.151-26.658 32.841-24.629 22.613-53.744 35.466-86.434 40.674-22.977 3.661-45.035-.211-65.627-10.667-30.469-15.471-53.33-38.995-68.298-69.585-15.037-30.732-25.926-63.122-34.699-96.159-6.896-25.964-13.238-52.078-19.584-78.184-4.809-19.781-7.88-39.904-10.981-60.007-4.819-31.235-9.792-62.448-14.246-93.735-2.406-16.9-4.041-33.917-5.72-50.911-2.002-20.254-4.048-40.516-5.406-60.819-1.822-27.225-2.015-54.459.69-81.695 3.272-32.95 8.435-65.579 15.84-97.83 8.182-35.635 23.478-67.793 47.595-95.593 14.766-17.021 32.149-30.51 52.652-39.738 16.387-7.375 33.903-12.01 51.715-11.752 22.657.328 44.834 5.037 64.354 17.664 16.903 10.934 29.33 26.03 37.668 44.225 5.589 12.198 10.202 24.848 15.077 37.363 1.303 3.345 1.825 6.987 2.976 10.402.548 1.625-.031 2.749-.67 4.041-8.172 16.535-10.778 34.576-14.077 52.415-2.246 12.143-4.174 24.344-6.366 36.497-.643 3.563-1.493 7.12-2.615 10.561-3.939 12.086-11.765 20.681-23.556 25.579-4.354 1.809-8.822 3.387-13.047 5.458-11.46 5.616-17.396 14.867-18.01 27.693-.337 7.027.418 13.77 3.235 20.243.87 1.998 1.496 4.134 2.587 6 5.503 9.408 3.526 17.995-2.278 26.497-5.749 8.421-11.834 16.565-18.518 24.25-23.191 26.664-44.158 54.959-62.336 85.271-17.408 29.027-32.521 59.155-43.468 91.291-6.248 18.341-9.937 37.164-11.838 56.379-.965 9.761-1.828 19.536-2.488 29.321-.267 3.963-.209 8.005 1.139 11.868 1.379 3.953 4.362 6.139 7.058 5.157 3.158-1.151 5.166-4.359 3.78-7.871-1.7-4.306-1.648-8.551-1.131-12.858 1.818-15.149 3.398-30.344 5.826-45.399 4.08-25.304 13.347-48.985 24.149-72.065 20.595-44.007 46.676-84.526 77.869-121.78 8.165-9.752 16.174-19.643 23.955-29.703 3.539-4.576 6.747-9.513 9.394-14.653 4.372-8.489 4.794-17.374.94-26.298-1.583-3.664-3.026-7.389-4.613-11.052-1.775-4.096-2.212-8.355-2.114-12.783.204-9.255 4.108-16.03 12.735-19.789a319.9 319.9 0 0 1 10.054-4.153c16.69-6.603 27.357-18.544 32.219-35.835 2.861-10.174 4.506-20.573 6.152-30.969 2.443-15.432 4.978-30.838 8.885-45.982.726-2.812 1.376-5.669 2.424-8.365 1.567-4.031 2.5-9.024 5.452-11.617 3.517-3.09 8.15.828 12.25 1.728 17.196 3.778 34.511 4.644 52.029 3.208 10.497-.861 20.85-2.66 31.578-4.478 2.028 5.311 2.042 9.649 1.465 14.001-1.883 14.223-1.651 28.228 3.064 42.02 1.798 5.258.835 10.723-.553 16.122a236.271 236.271 0 0 0-4.283 20.232c-.767 4.64-.888 9.417.119 14.09.59 2.738 2.895 4.325 5.585 4.108 2.443-.197 4.147-1.491 4.668-3.839.468-2.109.656-4.311.696-6.477.145-7.676 1.094-15.212 3.409-22.556 3.031-9.615 3.423-19.184.132-28.904-2.958-8.734-3.242-17.82-2.538-26.966.586-7.608 1.299-15.234-.715-22.775-.271-1.015-.672-2.277-.314-3.134 4.44-10.66 3.408-22.177 5.228-33.24 3.071-18.666 4.541-37.519 4.611-56.462.01-2.82 1.635-3.732 4.226-2.526 4.983 2.321 9.398 5.475 13.459 9.168 5.948 5.409 10.935 11.656 15.857 17.966 10.593 13.578 22.908 25.26 37.353 34.746 18.328 12.036 37.334 12.684 57.005 3.995 7.365-3.253 13.939-7.828 19.917-13.2 23.614-21.223 44.898-44.506 62.716-70.873 8.383-12.405 14.882-25.753 20.629-39.527 5.973-14.315 8.597-29.294 8.44-44.677-.145-14.168-1.146-28.326-1.642-42.493-.523-14.954-2.508-13.458 13.072-12.305 10.854.803 21.603 2.928 32.447 3.962 9.76.931 19.583 1.226 29.383 1.719 39.755 2.003 78.535 8.9 116.257 21.927 30.656 10.585 60.264 23.207 87.617 40.811 8.276 5.326 16.157 11.139 23.47 17.714 22.849 20.544 34.545 46.465 35.492 76.908.825 26.522.919 53.087.515 79.621-.403 26.561 1.582 53.068 1.052 79.612z"></path><path fill="#7f8383" d="m1302.734 1220.348.338-3.234c.63.774 1.408 1.479 1.825 2.355.186.391-.193 1.333-.605 1.657-.617.486-1.258.072-1.558-.778z"></path><path fill="#020101" d="M1652.066 1826.217a158.17 158.17 0 0 1 19.55 1.449c14.474 1.979 25.664 9.468 35.349 19.803 2.266 2.418 4.136 5.072 4.538 8.492.226 1.927-.279 3.718-1.816 4.86-1.928 1.432-4.234 1.347-6.108.009-1.424-1.016-2.445-2.612-3.593-3.993-8.713-10.487-19.405-17.073-33.339-18.422-8.745-.847-17.39-.808-26.101-.177-25.064 1.817-49.703 6.38-74.11 12.058-41.339 9.618-82.531 19.869-123.035 32.64-12.789 4.032-25.349 8.789-38.03 13.166a578.267 578.267 0 0 1-16.525 5.453c-1.703.531-3.538.814-5.323.867-2.533.076-5.079-2.166-5.332-4.564-.259-2.452 1.139-4.106 3.12-5.222.914-.515 2.058-.611 3.085-.938 4.482-1.426 9.094-2.544 13.417-4.353 33.576-14.047 68.566-23.59 103.705-32.626a3217.407 3217.407 0 0 1 65.525-16.113c22.993-5.402 46.253-9.376 69.789-11.559 5.059-.468 10.155-.563 15.234-.83z"></path><path fill="#020202" d="M1687.012 1647.486c-.04-44.372 2.256-80.232 8.4-115.785 1.05-6.076 2.358-12.113 3.749-18.121.393-1.694 1.22-3.476 2.36-4.763 1.545-1.745 3.792-2.023 5.994-1.086 2.317.986 3.326 2.973 2.796 5.286-9.232 40.252-11.591 81.21-11.773 122.283-.115 25.78.465 51.616 3.651 77.276.894 7.204 2.202 14.357 3.232 21.546.462 3.225.896 6.476.996 9.725.084 2.714-2.049 5.033-4.406 5.401-2.236.349-5.068-1.396-5.93-3.855-.475-1.355-.629-2.823-.914-4.242-2.794-13.908-4.825-27.958-5.777-42.079-1.343-19.939-1.867-39.933-2.378-51.586z"></path><path fill="#040303" d="M1464.587 1234.872c-8.684.257-17.899-1.611-27.006-4.117-7.072-1.946-13.411-5.404-19.185-9.875-3.184-2.465-5.709-5.466-7.299-9.286-1.308-3.143-1.654-6.307-1.076-9.569.624-3.527 4.04-6.34 6.771-5.799 3.07.607 6.661 4.113 5.543 6.956-2.468 6.274 1.354 8.703 5.479 11.017 3.762 2.111 7.703 4.137 11.815 5.352 25.775 7.616 50.124 4.546 72.745-10.342 2.116-1.393 4.13-2.983 6.37-4.132 2.054-1.053 4.232-.805 5.974.951 1.739 1.753 2.098 5.053.371 6.936-1.935 2.109-4.083 4.14-6.471 5.695-16.15 10.519-33.721 16.522-54.031 16.213z"></path><path fill="#040404" d="M1418.334 1128.575c-.343-4.162 1.106-8.693 2.779-13.068 3.74-9.784 8.318-19.253 10.77-29.512.241-1.01.866-2.014 1.553-2.814 1.47-1.714 3.319-2.98 5.662-2.004 2.152.897 3.675 2.661 3.157 5.099-.899 4.233-1.96 8.453-3.304 12.565-1.908 5.837-4.249 11.532-6.181 17.362-1.246 3.759-2.607 7.597-3.01 11.492-.876 8.482 4.003 13.059 12.331 11.988 8.321-1.07 16.148-3.825 23.76-7.28 2.277-1.034 4.631-2 7.049-2.594 1.834-.45 3.554.344 4.585 2.104 1.008 1.722.945 3.58-.116 5.128-.994 1.449-2.233 2.944-3.72 3.805-10.482 6.068-21.886 9.725-33.877 10.614-12.189.904-21.323-9.069-21.438-22.885z"></path><path fill="#050404" d="M1499.168 968.052c9.237.048 17.842 2.363 25.838 7.029 8.242 4.809 14.916 11.428 21.194 18.444 3.392 3.79 3.388 7.552.631 9.596-2.424 1.797-5.459 1.213-8.687-1.804-4.489-4.196-8.611-8.852-13.438-12.608-14.167-11.023-29.626-12.163-45.939-5.118-4.099 1.77-7.231 4.711-10.405 7.68-1.399 1.309-3.136 1.737-5.004 1.034-2.312-.87-3.763-4.107-2.818-6.264 1.505-3.438 4.159-5.916 7.109-8.038 9.402-6.762 19.976-9.922 31.519-9.951z"></path><path fill="#020202" d="M1374.569 1035.563c-5.429-3.045-11.429-2.405-16.085 1.762-2.47 2.211-4.376 4.875-5.52 7.972-2.518 6.821-4.532 13.77-4.466 21.775-.305 4.542.752 9.506 2.672 14.243 3.681 9.082 11.33 14.219 20.126 13.769 10.108-.518 18.055-6.708 20.852-16.242 4.551-15.513-3.526-35.397-17.579-43.279zm-2.498 34.393c-.448 2.292-1.633 3.988-3.891 4.774-2.169.755-5.028-.494-6.459-2.753-2.018-3.184-2.515-6.723-2.442-9.334.07-6.465 1.719-9.468 4.747-9.69 2.618-.192 4.832 1.885 6.296 6.426 1.1 3.411 2.481 6.834 1.749 10.577zm10.043 5.74c-1.884-.674-3.021-2.935-2.593-5.17.311-1.626 1.66-2.154 2.92-2.757 1.53.212 3.306 2.969 3.253 5.025-.045 1.769-2.097 3.432-3.58 2.902z"></path><path fill="#030303" d="M1528.331 1038.147c-1.934-6.812-5.222-12.764-9.617-18.134-4.127-5.041-9.633-6.189-15.754-4.435-4.822 1.381-8.134 4.643-10.404 9.014-2.902 5.587-4.306 11.538-4.226 17.85.196 7.835 2.156 15.113 7.381 21.143 7.423 8.566 19.224 8.552 26.557-.122 6.209-7.344 8.826-15.585 6.063-25.316zm-21.168 8.572c-.518 1.144-1.613 2.333-3.307 2.345-1.609.011-2.866-.814-3.568-1.994-2.641-4.447-3.941-9.159-2.075-14.31.817-2.255 2.371-3.576 4.743-3.597 1.991-.018 3.465 1.337 4.044 3.015.921 2.666 1.35 5.5 1.915 7.947-.629 2.514-.89 4.69-1.752 6.594zm10.044 7.323c-2.03-.103-2.87-1.614-2.659-3.663.162-1.57.963-2.813 2.521-2.667 2.005.188 2.679 1.865 2.858 3.518-.157 1.861-1.343 2.882-2.72 2.812z"></path></svg>